HIERARCHY
ROOT Hips
{
  OFFSET 5.80788e-005 67.184 3.4734
  CHANNELS 6 Xposition Yposition Zposition Zrotation Xrotation Yrotation
  JOINT Chest
  {
    OFFSET 0 8.7983 -4.7612
    CHANNELS 3 Zrotation Xrotation Yrotation
    JOINT Chest2
    {
      OFFSET 0 8.0291 0.4195
      CHANNELS 3 Zrotation Xrotation Yrotation
      JOINT Chest3
      {
        OFFSET 0 9.9351 -2.2114
        CHANNELS 3 Zrotation Xrotation Yrotation
        JOINT Neck
        {
          OFFSET 0 22.3885 -0.4656
          CHANNELS 3 Zrotation Xrotation Yrotation
          JOINT Head
          {
            OFFSET -0.0001 12.643 3.4389
            CHANNELS 3 Zrotation Xrotation Yrotation
            End Site
            {
              OFFSET 0.0001 17.6655 0.5274
            }
          }
        }
        JOINT LeftCollar
        {
          OFFSET 2.2603 21.606 7.4023
          CHANNELS 3 Zrotation Xrotation Yrotation
          JOINT LeftShoulder
          {
            OFFSET 13.5163 -1.1332 -5.0146
            CHANNELS 3 Zrotation Xrotation Yrotation
            JOINT LeftElbow
            {
              OFFSET -0.0995 -28.05 -0.2431
              CHANNELS 3 Zrotation Xrotation Yrotation
              JOINT LeftWrist
              {
                OFFSET 0.0679 -23.3996 -0.1402
                CHANNELS 3 Zrotation Xrotation Yrotation
                JOINT LeftFinger1
                {
                  OFFSET 0.7932 -9.069 2.5189
                  CHANNELS 3 Zrotation Xrotation Yrotation
                  JOINT LeftFinger11
                  {
                    OFFSET -0.8272 -3.3923 0.5977
                    CHANNELS 3 Zrotation Xrotation Yrotation
                    JOINT LeftFinger12
                    {
                      OFFSET -0.5649 -2.3158 0.4082
                      CHANNELS 3 Zrotation Xrotation Yrotation
                      End Site
                      {
                        OFFSET -0.4919 -1.6479 0.2673
                      }
                    }
                  }
                }
                JOINT LeftFinger2
                {
                  OFFSET 0.9159 -9.2044 0.2193
                  CHANNELS 3 Zrotation Xrotation Yrotation
                  JOINT LeftFinger21
                  {
                    OFFSET 0.0117 -4.1944 -0.0248
                    CHANNELS 3 Zrotation Xrotation Yrotation
                    JOINT LeftFinger22
                    {
                      OFFSET 0.0071 -2.3249 -0.0142
                      CHANNELS 3 Zrotation Xrotation Yrotation
                      End Site
                      {
                        OFFSET -0.1475 -2.0882 0.0028
                      }
                    }
                  }
                }
                JOINT LeftFinger3
                {
                  OFFSET 0.6113 -8.7231 -2.0637
                  CHANNELS 3 Zrotation Xrotation Yrotation
                  JOINT LeftFinger31
                  {
                    OFFSET -0.1927 -3.8059 -0.2383
                    CHANNELS 3 Zrotation Xrotation Yrotation
                    JOINT LeftFinger32
                    {
                      OFFSET -0.1091 -2.1688 -0.1362
                      CHANNELS 3 Zrotation Xrotation Yrotation
                      End Site
                      {
                        OFFSET -0.2358 -1.9176 -0.0906
                      }
                    }
                  }
                }
                JOINT LeftFinger4
                {
                  OFFSET -0.6151 -8.0947 -3.5641
                  CHANNELS 3 Zrotation Xrotation Yrotation
                  JOINT LeftFinger41
                  {
                    OFFSET -0.4882 -2.341 -0.6462
                    CHANNELS 3 Zrotation Xrotation Yrotation
                    JOINT LeftFinger42
                    {
                      OFFSET -0.3575 -1.7167 -0.4742
                      CHANNELS 3 Zrotation Xrotation Yrotation
                      End Site
                      {
                        OFFSET -0.4187 -1.5237 -0.3496
                      }
                    }
                  }
                }
                JOINT LeftFinger0
                {
                  OFFSET -1.42 -1.8761 1.4223
                  CHANNELS 3 Zrotation Xrotation Yrotation
                  JOINT LeftFinger01
                  {
                    OFFSET -1.1471 -3.4929 2.6334
                    CHANNELS 3 Zrotation Xrotation Yrotation
                    JOINT LeftFinger02
                    {
                      OFFSET -0.823 -2.3 1.6571
                      CHANNELS 3 Zrotation Xrotation Yrotation
                      End Site
                      {
                        OFFSET -0.5822 -1.6914 1.1582
                      }
                    }
                  }
                }
              }
            }
          }
        }
        JOINT RightCollar
        {
          OFFSET -2.2603 21.606 7.4023
          CHANNELS 3 Zrotation Xrotation Yrotation
          JOINT RightShoulder
          {
            OFFSET -13.5187 -1.1334 -5.0155
            CHANNELS 3 Zrotation Xrotation Yrotation
            JOINT RightElbow
            {
              OFFSET 0.0994 -28.0499 -0.2431
              CHANNELS 3 Zrotation Xrotation Yrotation
              JOINT RightWrist
              {
                OFFSET -0.0679 -23.3996 -0.1402
                CHANNELS 3 Zrotation Xrotation Yrotation
                JOINT RightFinger1
                {
                  OFFSET -0.7932 -9.0691 2.5189
                  CHANNELS 3 Zrotation Xrotation Yrotation
                  JOINT RightFinger11
                  {
                    OFFSET 0.8272 -3.3923 0.5977
                    CHANNELS 3 Zrotation Xrotation Yrotation
                    JOINT RightFinger12
                    {
                      OFFSET 0.565 -2.3158 0.4082
                      CHANNELS 3 Zrotation Xrotation Yrotation
                      End Site
                      {
                        OFFSET 0.4919 -1.6479 0.2673
                      }
                    }
                  }
                }
                JOINT RightFinger2
                {
                  OFFSET -0.916 -9.2044 0.2193
                  CHANNELS 3 Zrotation Xrotation Yrotation
                  JOINT RightFinger21
                  {
                    OFFSET -0.0117 -4.1944 -0.0248
                    CHANNELS 3 Zrotation Xrotation Yrotation
                    JOINT RightFinger22
                    {
                      OFFSET -0.0071 -2.3249 -0.0142
                      CHANNELS 3 Zrotation Xrotation Yrotation
                      End Site
                      {
                        OFFSET 0.1475 -2.0882 0.0028
                      }
                    }
                  }
                }
                JOINT RightFinger3
                {
                  OFFSET -0.6113 -8.7231 -2.0637
                  CHANNELS 3 Zrotation Xrotation Yrotation
                  JOINT RightFinger31
                  {
                    OFFSET 0.1927 -3.8059 -0.2383
                    CHANNELS 3 Zrotation Xrotation Yrotation
                    JOINT RightFinger32
                    {
                      OFFSET 0.1091 -2.1688 -0.1362
                      CHANNELS 3 Zrotation Xrotation Yrotation
                      End Site
                      {
                        OFFSET 0.2358 -1.9176 -0.0906
                      }
                    }
                  }
                }
                JOINT RightFinger4
                {
                  OFFSET 0.6151 -8.0947 -3.564
                  CHANNELS 3 Zrotation Xrotation Yrotation
                  JOINT RightFinger41
                  {
                    OFFSET 0.4882 -2.341 -0.6462
                    CHANNELS 3 Zrotation Xrotation Yrotation
                    JOINT RightFinger42
                    {
                      OFFSET 0.3574 -1.7166 -0.4742
                      CHANNELS 3 Zrotation Xrotation Yrotation
                      End Site
                      {
                        OFFSET 0.4187 -1.5237 -0.3496
                      }
                    }
                  }
                }
                JOINT RightFinger0
                {
                  OFFSET 1.4199 -1.8761 1.4221
                  CHANNELS 3 Zrotation Xrotation Yrotation
                  JOINT RightFinger01
                  {
                    OFFSET 1.1472 -3.4929 2.6336
                    CHANNELS 3 Zrotation Xrotation Yrotation
                    JOINT RightFinger02
                    {
                      OFFSET 0.8229 -2.3 1.6571
                      CHANNELS 3 Zrotation Xrotation Yrotation
                      End Site
                      {
                        OFFSET 0.5822 -1.6914 1.1582
                      }
                    }
                  }
                }
              }
            }
          }
        }
      }
    }
  }
  JOINT RightHip
  {
    OFFSET -9.412 3.9771 -0.7758
    CHANNELS 3 Zrotation Xrotation Yrotation
    JOINT RightKnee
    {
      OFFSET -0.7531 -40.938 0
      CHANNELS 3 Zrotation Xrotation Yrotation
      JOINT RightAnkle
      {
        OFFSET 0 -40.1986 0
        CHANNELS 3 Zrotation Xrotation Yrotation
        JOINT RightToe
        {
          OFFSET 0 -4.4182 9.239
          CHANNELS 3 Zrotation Xrotation Yrotation
          End Site
          {
            OFFSET 0 0 6.1981
          }
        }
      }
    }
  }
  JOINT LeftHip
  {
    OFFSET 9.4119 3.9773 -0.7758
    CHANNELS 3 Zrotation Xrotation Yrotation
    JOINT LeftKnee
    {
      OFFSET 0.7532 -40.9383 0
      CHANNELS 3 Zrotation Xrotation Yrotation
      JOINT LeftAnkle
      {
        OFFSET 0 -40.1986 0
        CHANNELS 3 Zrotation Xrotation Yrotation
        JOINT LeftToe
        {
          OFFSET 0 -4.4182 9.239
          CHANNELS 3 Zrotation Xrotation Yrotation
          End Site
          {
            OFFSET 0 0 6.1981
          }
        }
      }
    }
  }
}
MOTION
Frames:	4
Frame Time:	0.0333333
0.000747201 11.3194 -63.6013 -180 -89.9981 -180 -0.0627306 8.59698 -0.108089 -0.110745 17.1941 -0.210149 -0.110745 17.1942 -0.210149 9.57617e-007 -11.0599 1.16395e-006 5.43974e-008 -26.9219 8.24364e-008 -2.80083 2.04375 -2.68451 7.3325 33.8964 23.5644 -32.3312 -71.286 -59.259 -4.87396 -1.4738 -24.0847 -1.19271e-015 3.18055e-015 2.5842e-015 0 0 -3.67752e-015 -3.97569e-016 1.59028e-015 2.68359e-015 -1.19271e-015 3.18055e-015 2.5842e-015 -0.0128152 0.00232198 9.09084e-005 7.95139e-016 -3.18055e-015 8.44835e-015 -1.19271e-015 3.18055e-015 2.5842e-015 -0.0160554 0.00301093 0.000868912 -3.97569e-016 1.59028e-015 7.70291e-015 -1.19271e-015 3.18055e-015 2.5842e-015 -0.0125677 0.00310997 0.0028319 1.59028e-015 0 -4.22417e-015 -1.19271e-015 3.18055e-015 2.5842e-015 0 0 -3.67752e-015 -3.97569e-016 1.59028e-015 2.68359e-015 1.87762 2.59149 -3.33282 -9.92539 34.208 -16.991 24.7857 -72.6795 51.3098 4.77182 -2.39258 24.5613 7.95139e-016 -4.77083e-015 -5.06901e-015 9.03991e-006 8.81238e-006 -6.14406e-007 1.59028e-015 1.59028e-015 -4.17448e-015 7.95139e-016 -4.77083e-015 -5.06901e-015 0.0129536 0.00232749 -8.13203e-005 7.95139e-016 -1.59028e-015 -9.93923e-016 7.95139e-016 -4.77083e-015 -5.06901e-015 0.0163096 0.00303139 -0.000862063 1.10955e-005 1.41928e-005 -1.37126e-005 7.95139e-016 -4.77083e-015 -5.06901e-015 0.0146117 0.00368606 -0.00326243 2.38542e-015 1.59028e-014 4.96962e-015 7.95139e-016 -4.77083e-015 -5.06901e-015 9.03991e-006 8.81238e-006 -6.14406e-007 1.59028e-015 1.59028e-015 -4.17448e-015 -33.5305 -39.9796 1.90858 170.508 76.1332 -173.344 0.310635 13.3961 -7.32958 1.09945e-006 -1.00881e-006 2.31127e-006 34.5463 -39.9579 -0.746881 -170.509 76.1341 173.34 0.597156 13.3552 6.66279 -2.07973e-007 1.86595e-007 4.61916e-008 
0.000807303 11.3191 -63.6014 -179.999 -89.9981 -179.999 -0.0654419 9.17233 -0.106111 -0.115686 18.3447 -0.205484 -0.115686 18.3448 -0.205484 1.45002e-006 -11.5847 1.74995e-006 -1.86247e-007 -27.5628 -1.48606e-007 -3.45516 0.61518 -3.48733 7.69611 33.9168 23.4069 -32.3312 -71.286 -59.2591 -3.71413 -2.6549 -23.1668 1.19271e-015 0 1.09332e-015 3.97569e-016 -1.59028e-015 -1.98785e-015 1.19271e-015 1.59028e-015 -1.88845e-015 1.19271e-015 0 1.09332e-015 -0.0128225 0.00233948 9.72845e-005 0 0 -1.98785e-015 1.19271e-015 0 1.09332e-015 -0.0160417 0.00299832 0.000858062 3.97569e-016 -1.59028e-015 6.41081e-015 1.19271e-015 0 1.09332e-015 -0.0126116 0.00313317 0.00283322 3.97252e-031 -4.77083e-015 4.77083e-015 1.19271e-015 0 1.09332e-015 3.97569e-016 -1.59028e-015 -1.98785e-015 1.19271e-015 1.59028e-015 -1.88845e-015 2.72291 1.11811 -2.32678 -10.6496 34.1812 -16.6849 24.8776 -72.6791 51.3989 3.48827 -3.48626 23.3932 2.38542e-015 -3.18055e-015 -1.53064e-014 1.59028e-015 0 -8.54774e-015 1.59028e-015 -3.18055e-015 -1.18277e-014 2.38542e-015 -3.18055e-015 -1.53064e-014 0.0129773 0.00232433 -9.32689e-005 -7.95139e-016 1.59028e-015 5.06901e-015 2.38542e-015 -3.18055e-015 -1.53064e-014 0.0163218 0.00304742 -0.000878619 3.18055e-015 -1.59028e-015 -5.26779e-015 2.38542e-015 -3.18055e-015 -1.53064e-014 0.0145695 0.00368495 -0.00326553 4.77083e-015 0 -1.19271e-015 2.38542e-015 -3.18055e-015 -1.53064e-014 1.59028e-015 0 -8.54774e-015 1.59028e-015 -3.18055e-015 -1.18277e-014 -32.7832 -39.9519 2.81548 170.509 76.1311 -173.346 0.99699 13.4236 -7.80254 -1.48993e-007 -1.0594e-006 2.58826e-006 33.886 -39.9402 -1.55446 -170.51 76.1325 173.342 -0.0112457 13.3869 7.0786 1.52268e-007 4.22675e-006 -2.5882e-006 
0.000867374 11.3188 -63.6014 180 -89.9981 180 -0.0681645 9.74591 -0.104053 -0.120745 19.492 -0.2006 -0.120745 19.492 -0.2006 1.95532e-006 -12.109 2.37707e-006 -1.45343e-007 -28.2026 -1.13356e-007 -4.12899 -0.802963 -4.30586 8.05976 33.9363 23.2493 -32.3313 -71.286 -59.2592 -2.5351 -3.81611 -22.2249 0 0 -7.30534e-015 -1.92028e-006 -2.47005e-006 1.86765e-006 -1.45234e-006 -9.53037e-008 -2.39056e-006 0 0 -7.30534e-015 -0.0128197 0.0023199 9.24275e-005 1.19271e-015 -1.59028e-015 -4.42296e-015 0 0 -7.30534e-015 -0.0160355 0.00300007 0.000869994 -6.01445e-006 -1.15787e-006 -4.15384e-006 0 0 -7.30534e-015 -0.0125653 0.00312336 0.00282301 -7.95139e-016 -1.59028e-015 -3.8266e-015 0 0 -7.30534e-015 -1.92028e-006 -2.47005e-006 1.86765e-006 -1.45234e-006 -9.53037e-008 -2.39056e-006 3.59298 -0.338721 -1.30022 -11.3731 34.1512 -16.3793 24.9695 -72.6786 51.4881 2.18212 -4.55231 22.2004 1.39423e-006 -2.10442e-007 2.51624e-006 -4.56451e-006 5.42446e-008 -9.06381e-006 -1.66581e-006 1.67292e-006 -3.55506e-007 1.39423e-006 -2.10442e-007 2.51624e-006 0.0129433 0.00232013 -9.51298e-005 -7.20299e-006 2.25957e-006 -4.7116e-006 1.39423e-006 -2.10442e-007 2.51624e-006 0.0163287 0.00303478 -0.000881325 -4.4574e-006 -8.12712e-006 2.22244e-006 1.39423e-006 -2.10442e-007 2.51624e-006 0.0145834 0.00367713 -0.00326927 -4.99746e-006 2.51709e-006 -1.06682e-006 1.39423e-006 -2.10442e-007 2.51624e-006 -4.56451e-006 5.42446e-008 -9.06381e-006 -1.66581e-006 1.67292e-006 -3.55506e-007 -32.0375 -39.9148 3.72089 170.51 76.1294 -173.347 1.6834 13.4456 -8.27577 -8.82781e-032 -1.59028e-015 -3.18055e-015 33.2263 -39.9155 -2.36135 -170.511 76.1307 173.344 -0.619796 13.4144 7.49476 -6.78885e-007 -2.89016e-007 -2.40434e-006 
0.000937055 11.3184 -63.6015 -179.999 -89.9981 -179.999 -0.0711143 10.3622 -0.101578 -0.126374 20.7246 -0.194737 -0.126374 20.7247 -0.194737 2.44291e-006 -12.6328 2.56838e-006 2.39105e-007 -28.916 3.07445e-007 -4.90276 -2.30846 -5.19982 8.48422 33.9581 23.0651 -32.3315 -71.286 -59.2594 -1.23181 -5.06982 -21.1817 -3.88975e-031 3.18055e-015 7.00716e-015 3.97569e-016 1.59028e-015 7.45443e-016 7.95139e-016 3.18055e-015 9.44227e-016 -3.88975e-031 3.18055e-015 7.00716e-015 -0.0128198 0.00233176 8.50355e-005 2.46194e-006 -2.23581e-006 5.70577e-006 -3.88975e-031 3.18055e-015 7.00716e-015 -0.0160603 0.0030036 0.000862252 2.80007e-031 1.59028e-015 -1.00883e-014 -3.88975e-031 3.18055e-015 7.00716e-015 -0.0125841 0.00312532 0.00283691 -1.19271e-015 -3.18055e-015 1.66979e-014 -3.88975e-031 3.18055e-015 7.00716e-015 3.97569e-016 1.59028e-015 7.45443e-016 7.95139e-016 3.18055e-015 9.44227e-016 4.5834 -1.87655 -0.180439 -12.1792 34.1133 -16.0396 25.0615 -72.6781 51.5772 0.740667 -5.69721 20.8883 3.18055e-015 3.18055e-015 -1.02374e-014 3.51232e-007 1.0137e-005 -7.9734e-006 -5.212e-006 -8.66617e-006 1.05842e-005 3.18055e-015 3.18055e-015 -1.02374e-014 0.0129381 0.00231688 -8.62125e-005 1.19643e-006 1.11382e-005 -8.71474e-006 3.18055e-015 3.18055e-015 -1.02374e-014 0.0163455 0.00304005 -0.000878156 -5.25828e-006 1.94014e-006 1.16054e-006 3.18055e-015 3.18055e-015 -1.02374e-014 0.0145663 0.00368025 -0.00326027 -1.59028e-015 1.59028e-015 -0 3.18055e-015 3.18055e-015 -1.02374e-014 3.51232e-007 1.0137e-005 -7.9734e-006 -5.212e-006 -8.66617e-006 1.05842e-005 -31.1698 -39.86 4.77484 170.511 76.1278 -173.349 2.48414 13.4646 -8.82799 -6.99535e-007 -4.03853e-006 -6.84056e-006 32.4584 -39.8774 -3.30109 -170.512 76.1291 173.345 -1.32987 13.4412 7.98054 1.30205e-006 -2.51389e-006 2.26743e-006 
